<?xml version="1.0" standalone="no"?>
<!DOCTYPE svg PUBLIC "-//W3C//DTD SVG 20010904//EN"
 "http://www.w3.org/TR/2001/REC-SVG-20010904/DTD/svg10.dtd">
<svg version="1.0" xmlns="http://www.w3.org/2000/svg"
 width="300.000000pt" height="46.000000pt" viewBox="0 0 300.000000 46.000000"
 preserveAspectRatio="xMidYMid meet">
<metadata>
Created by potrace 1.10, written by Peter Selinger 2001-2011
</metadata>
<g transform="translate(0.000000,46.000000) scale(0.100000,-0.100000)"
fill="#000000" stroke="none">
<path d="M1106 404 c-9 -24 12 -92 35 -115 12 -12 19 -22 17 -23 -1 -2 -48
-15 -103 -31 -55 -15 -106 -30 -112 -32 -7 -3 -13 1 -13 10 0 34 -90 111 -104
89 -3 -5 4 -26 15 -47 l20 -38 -20 6 c-26 6 -28 -17 -3 -33 28 -18 -126 -6
-171 13 l-39 17 21 26 c20 25 29 64 14 64 -3 0 -15 -7 -25 -16 -16 -16 -18
-15 -23 2 -13 42 -39 84 -52 84 -16 0 -18 -81 -3 -110 10 -18 9 -19 -31 -5
-23 8 -51 15 -63 15 -14 0 -26 11 -36 32 -8 17 -26 39 -39 47 l-24 16 6 -34
c4 -19 14 -42 22 -52 14 -15 12 -17 -24 -23 -57 -9 -91 -52 -91 -117 0 -27 2
-49 4 -49 2 0 14 19 25 43 40 80 125 160 90 84 -12 -26 -5 -77 10 -77 16 0 43
71 37 96 -6 22 -4 24 21 18 49 -10 117 -34 152 -53 l35 -18 -30 -16 c-36 -18
-59 -44 -69 -76 -7 -23 -6 -24 26 -17 18 3 43 15 54 26 27 25 31 25 39 -2 6
-23 6 -23 22 -3 9 11 13 31 10 45 l-5 25 78 -3 c71 -3 198 18 265 44 19 7 19
7 0 -22 -47 -66 -29 -90 26 -35 24 24 31 26 41 15 18 -22 32 -5 26 32 -3 19
-1 36 4 40 13 8 171 35 176 31 2 -2 -3 -17 -12 -33 -16 -31 -21 -94 -7 -94 17
0 40 36 52 78 6 23 15 40 20 37 6 -4 10 -11 10 -16 0 -6 -4 -7 -10 -4 -16 10
-12 -11 5 -25 22 -19 31 -4 18 31 l-11 30 36 -7 c20 -4 47 -11 60 -15 12 -5
32 -5 45 0 12 4 39 11 59 15 l36 7 -11 -30 c-13 -35 -4 -50 18 -31 17 14 21
35 5 25 -5 -3 -10 -2 -10 4 0 5 4 12 10 16 5 3 14 -14 20 -37 12 -42 35 -78
52 -78 13 0 9 63 -7 94 -20 38 -19 38 13 32 15 -2 57 -10 94 -16 l68 -12 -6
-38 c-7 -40 6 -59 25 -36 10 11 17 9 41 -15 15 -16 36 -29 45 -29 14 0 13 7
-9 46 -14 25 -20 44 -13 41 69 -26 197 -48 267 -45 l79 3 -5 -25 c-3 -14 1
-34 10 -45 16 -20 16 -20 22 3 8 27 16 28 38 3 18 -19 73 -38 82 -28 12 11
-30 70 -63 89 l-35 21 33 18 c35 19 103 43 152 53 25 6 27 4 21 -18 -6 -25 21
-96 37 -96 15 0 22 51 10 77 -35 76 50 -4 90 -85 11 -23 23 -42 25 -42 2 0 4
22 4 49 0 65 -34 108 -91 117 -36 6 -38 8 -24 23 19 21 32 81 17 81 -14 0 -62
-58 -62 -76 0 -8 -10 -14 -24 -14 -13 0 -42 -7 -65 -15 -40 -14 -41 -13 -31 5
5 10 10 39 10 64 0 62 -22 60 -53 -5 -20 -43 -25 -48 -37 -35 -33 41 -42 -6
-9 -48 l21 -26 -39 -17 c-48 -20 -189 -31 -179 -14 6 9 0 10 -20 5 -20 -5 -25
-4 -19 6 4 7 18 10 36 6 21 -4 29 -2 29 8 0 9 -7 12 -21 9 l-20 -6 20 38 c11
21 18 42 15 47 -14 22 -104 -55 -104 -89 0 -9 -6 -13 -14 -10 -8 3 -60 18
-115 34 -56 15 -101 31 -101 35 0 5 4 8 10 8 17 0 40 58 40 100 0 37 -2 40
-19 30 -11 -5 -29 -26 -42 -46 l-22 -36 -14 33 c-11 27 -16 31 -23 19 -12 -19
-13 -56 -1 -78 8 -15 -2 -17 -107 -18 -146 -2 -179 -2 -323 0 l-115 1 9 26 c6
14 7 38 3 53 -5 22 -10 26 -21 16 -8 -6 -15 -21 -17 -33 -3 -19 -6 -18 -26 16
-29 46 -57 64 -66 41z m47 -40 c22 -30 39 -84 27 -84 -22 0 -60 60 -60 96 0
21 13 17 33 -12z m723 -6 c-6 -30 -41 -78 -57 -78 -21 0 33 109 55 110 5 0 6
-14 2 -32z m-1295 -20 c18 -34 28 -87 18 -94 -12 -7 -39 57 -39 91 0 31 6 32
21 3z m1845 -63 c-9 -20 -20 -34 -26 -30 -12 7 -4 48 19 90 l16 30 3 -26 c2
-15 -4 -43 -12 -64z m-1196 66 c0 -18 -21 -64 -26 -58 -9 8 6 67 17 67 5 0 9
-4 9 -9z m565 -22 c9 -39 -1 -50 -15 -15 -12 34 -13 46 -1 46 5 0 12 -14 16
-31z m-1365 -32 c0 -5 -9 -2 -20 8 -11 10 -20 25 -20 34 1 12 5 10 20 -8 11
-13 20 -28 20 -34z m476 -53 c9 -13 14 -27 11 -31 -8 -7 -67 52 -67 67 0 17
37 -6 56 -36z m1230 12 c-19 -30 -56 -53 -56 -36 0 15 59 74 67 67 3 -4 -2
-18 -11 -31z m-806 -37 c-7 -16 -16 -29 -20 -29 -8 0 6 65 18 85 12 20 14 -27
2 -56z m356 5 c5 -39 5 -39 -10 -14 -18 29 -22 80 -6 64 6 -6 13 -28 16 -50z
m-1340 14 c-9 -13 -26 -36 -37 -53 l-21 -30 7 30 c7 31 41 75 58 75 5 0 2 -10
-7 -22z m75 -35 c-9 -15 -10 -13 -11 13 0 17 3 34 8 38 11 12 14 -32 3 -51z
m2257 35 c11 -13 24 -36 27 -53 l7 -30 -21 30 c-11 17 -28 40 -37 53 -9 12
-12 22 -7 22 5 0 19 -10 31 -22z m-1588 -17 c0 -14 -49 -68 -50 -55 0 11 38
64 46 64 2 0 4 -4 4 -9z m870 -54 c0 -7 -12 1 -25 16 -14 15 -25 33 -25 40 0
7 12 -1 25 -16 14 -15 25 -33 25 -40z m-1290 14 c0 -14 -69 -71 -86 -71 -23 0
1 37 39 60 35 22 47 25 47 11z m1707 -11 c38 -23 62 -60 39 -60 -17 0 -86 57
-86 71 0 14 12 11 47 -11z"/>
</g>
</svg>
